<svg width="33" height="32" viewBox="0 0 33 32" fill="none" xmlns="http://www.w3.org/2000/svg">
<path d="M32.5512 27.2177L26.1248 21.088C25.8347 20.8114 25.4415 20.6577 25.029 20.6577H23.9783C25.7574 18.4874 26.8145 15.7576 26.8145 12.7881C26.8145 5.7239 20.8134 0 13.4072 0C6.00103 0 0 5.7239 0 12.7881C0 19.8523 6.00103 25.5762 13.4072 25.5762C16.5205 25.5762 19.3825 24.5679 21.6578 22.871V23.8731C21.6578 24.2666 21.819 24.6417 22.109 24.9183L28.5355 31.048C29.1414 31.6259 30.1211 31.6259 30.7206 31.048L32.5448 29.3081C33.1507 28.7302 33.1507 27.7956 32.5512 27.2177ZM13.4072 20.6577C8.85006 20.6577 5.15663 17.141 5.15663 12.7881C5.15663 8.44137 8.84362 4.91849 13.4072 4.91849C17.9644 4.91849 21.6578 8.43522 21.6578 12.7881C21.6578 17.1348 17.9708 20.6577 13.4072 20.6577Z" fill="#595959"/>
</svg>
