<svg width="448" height="512" viewBox="0 0 448 512" fill="none" xmlns="http://www.w3.org/2000/svg">
<g clip-path="url(#clip0)">
<path d="M32 464C32 476.73 37.0571 488.939 46.0589 497.941C55.0606 506.943 67.2696 512 80 512H368C380.73 512 392.939 506.943 401.941 497.941C410.943 488.939 416 476.73 416 464V128H32V464ZM304 208C304 203.757 305.686 199.687 308.686 196.686C311.687 193.686 315.757 192 320 192C324.243 192 328.313 193.686 331.314 196.686C334.314 199.687 336 203.757 336 208V432C336 436.244 334.314 440.313 331.314 443.314C328.313 446.314 324.243 448 320 448C315.757 448 311.687 446.314 308.686 443.314C305.686 440.313 304 436.244 304 432V208ZM208 208C208 203.757 209.686 199.687 212.686 196.686C215.687 193.686 219.757 192 224 192C228.243 192 232.313 193.686 235.314 196.686C238.314 199.687 240 203.757 240 208V432C240 436.244 238.314 440.313 235.314 443.314C232.313 446.314 228.243 448 224 448C219.757 448 215.687 446.314 212.686 443.314C209.686 440.313 208 436.244 208 432V208ZM112 208C112 203.757 113.686 199.687 116.686 196.686C119.687 193.686 123.757 192 128 192C132.243 192 136.313 193.686 139.314 196.686C142.314 199.687 144 203.757 144 208V432C144 436.244 142.314 440.313 139.314 443.314C136.313 446.314 132.243 448 128 448C123.757 448 119.687 446.314 116.686 443.314C113.686 440.313 112 436.244 112 432V208ZM432 32.0001H312L302.6 13.3001C300.609 9.30219 297.541 5.93928 293.743 3.58964C289.945 1.24 285.566 -0.00315004 281.1 5.32569e-05H166.8C162.344 -0.0170773 157.973 1.22143 154.188 3.57369C150.403 5.92595 147.358 9.2968 145.4 13.3001L136 32.0001H16C11.7565 32.0001 7.68687 33.6858 4.68629 36.6863C1.68571 39.6869 0 43.7566 0 48.0001L0 80.0001C0 84.2435 1.68571 88.3132 4.68629 91.3138C7.68687 94.3143 11.7565 96.0001 16 96.0001H432C436.243 96.0001 440.313 94.3143 443.314 91.3138C446.314 88.3132 448 84.2435 448 80.0001V48.0001C448 43.7566 446.314 39.6869 443.314 36.6863C440.313 33.6858 436.243 32.0001 432 32.0001V32.0001Z" fill="#CC1F3B"/>
</g>
<defs>
<clipPath id="clip0">
<rect width="448" height="512" fill="white"/>
</clipPath>
</defs>
</svg>
